Coordinates
version=1
nRows=11
nColumns=63
inDegrees=yes

Units are S.I. units (second, meters, Newtons, ...)
If the header above contains a line with 'inDegrees', this indicates whether rotational values are in degrees (yes) or radians (no).

endheader
time	pelvis_tilt	pelvis_list	pelvis_rotation	pelvis_tx	pelvis_ty	pelvis_tz	hip_flexion_r	hip_adduction_r	hip_rotation_r	knee_angle_r	knee_angle_r_beta	ankle_angle_r	subtalar_angle_r	mtp_angle_r	hip_flexion_l	hip_adduction_l	hip_rotation_l	knee_angle_l	knee_angle_l_beta	ankle_angle_l	subtalar_angle_l	mtp_angle_l	L5_S1_Flex_Ext	L5_S1_Lat_Bending	L5_S1_axial_rotation	L4_L5_Flex_Ext	L4_L5_Lat_Bending	L4_L5_axial_rotation	L3_L4_Flex_Ext	L3_L4_Lat_Bending	L3_L4_axial_rotation	L2_L3_Flex_Ext	L2_L3_Lat_Bending	L2_L3_axial_rotation	L1_L2_Flex_Ext	L1_L2_Lat_Bending	L1_L2_axial_rotation	L1_T12_Flex_Ext	L1_T12_Lat_Bending	L1_T12_axial_rotation	Abs_r3	Abs_r2	Abs_r1	Abs_t1	Abs_t2	neck_flexion	neck_bending	neck_rotation	arm_flex_r	arm_add_r	arm_rot_r	elbow_flex_r	pro_sup_r	wrist_flex_r	wrist_dev_r	arm_flex_l	arm_add_l	arm_rot_l	elbow_flex_l	pro_sup_l	wrist_flex_l	wrist_dev_l
      0.83333333	    -34.46118593	      8.30765602	    -85.21387109	     -0.11174507	      0.97850673	     -1.03438257	     39.44203548	    -18.00956708	    -11.88504428	     36.18661864	      0.63157564	     -5.18074668	      2.65723259	      0.00000000	     41.82079203	    -28.71627617	     28.91885671	     57.14618792	      0.99738913	     26.01977552	    -11.40835241	      0.00000000	     -0.48785912	     -1.52682323	     -0.82906633	     -0.90600317	     -2.03067490	     -0.88088298	     -0.80150375	     -3.71231800	     -0.88088298	     -0.55757419	     -3.71231800	     -0.72543304	     -0.45302598	     -3.11349793	     -0.67361640	     -0.27876270	     -2.36504918	     -0.62179975	     -3.48472892	    -17.27172975	     -4.61101822	      0.00000000	      0.00000000	      0.00000000	      0.00000000	      0.00000000	      8.97023844	    -42.18215244	    -49.03688254	    118.45033572	     75.42672542	      0.00000000	      4.94680440	     -3.08854592	    -52.57954050	    -14.39375413	     43.25484232	     67.84188040	      0.00000000	      4.94680440
      0.85000000	    -34.24524852	      9.10349663	    -85.07990060	     -0.11345536	      0.97980467	     -1.03262906	     41.21343838	    -17.61664247	    -11.86416952	     36.57694942	      0.63838820	     -5.39361836	      2.39454432	      0.00000000	     42.00870345	    -28.72437136	     28.71849976	     56.09941299	      0.97911947	     26.24999303	    -10.76011663	      0.00000000	     -0.49787917	     -1.56780167	     -0.75936430	     -0.92461140	     -2.08517623	     -0.80682456	     -0.81796568	     -3.81195299	     -0.80682456	     -0.56902610	     -3.81195299	     -0.66444376	     -0.46233060	     -3.19706118	     -0.61698349	     -0.28448816	     -2.42852479	     -0.56952322	     -3.55630111	    -17.73528611	     -4.22335640	      0.00000000	      0.00000000	      0.00000000	      0.00000000	      0.00000000	     10.82775759	    -42.17186783	    -48.21183187	    119.97840090	     75.48183267	      0.00000000	      4.94770233	     -2.32794473	    -53.26711588	    -14.34272739	     43.49104602	     67.87330627	      0.00000000	      4.94770233
      0.86666667	    -33.84923450	      9.85912493	    -85.07971690	     -0.11459652	      0.98121132	     -1.03060917	     43.01501182	    -17.14927937	    -11.88759858	     37.10867367	      0.64766854	     -5.33109190	      1.87684965	      0.00000000	     41.93907358	    -28.66858524	     28.30525520	     54.96634268	      0.95934366	     26.47311819	    -10.16372702	      0.00000000	     -0.50751415	     -1.61858494	     -0.69181043	     -0.94250453	     -2.15271797	     -0.73504858	     -0.83379500	     -3.93542742	     -0.73504858	     -0.58003792	     -3.93542742	     -0.60533413	     -0.47127764	     -3.30061841	     -0.56209597	     -0.28999359	     -2.50718807	     -0.51885782	     -3.62512283	    -18.30975655	     -3.84764207	      0.00000000	      0.00000000	      0.00000000	      0.00000000	      0.00000000	     12.68304523	    -42.15956444	    -47.13923466	    121.44428607	     75.56083190	      0.00000000	      4.94873400	     -1.74266833	    -53.92390480	    -14.23425473	     43.64040964	     67.92251537	      0.00000000	      4.94873400
      0.88333333	    -33.17056528	     10.30041022	    -85.14737945	     -0.11533304	      0.98311355	     -1.02793264	     44.49236052	    -16.67844817	    -11.88806109	     37.82134694	      0.66010703	     -4.93355016	      1.35578698	      0.00000000	     41.30123898	    -28.44815872	     27.64400451	     53.72119859	      0.93761179	     26.57647870	     -9.70878586	      0.00000000	     -0.49617790	     -1.67933485	     -1.21014981	     -0.92145198	     -2.23351536	     -1.28578417	     -0.81517068	     -4.08313477	     -1.28578417	     -0.56708173	     -4.08313477	     -1.05888108	     -0.46075080	     -3.42449964	     -0.98324672	     -0.28351605	     -2.60128969	     -0.90761236	     -3.54414915	    -18.99697175	     -6.73049020	      0.00000000	      0.00000000	      0.00000000	      0.00000000	      0.00000000	     20.61515524	    -40.69939957	    -38.77443807	    120.67199569	     76.89542580	      0.00000000	      4.98001809	     -9.43345407	    -54.03985000	    -22.16395282	     45.68830381	     67.17084622	      0.00000000	      4.98001809
      0.90000000	    -32.71882493	     10.96538740	    -84.99722749	     -0.11558993	      0.98444548	     -1.02377861	     45.88324106	    -15.96042321	    -12.43323128	     38.46021843	      0.67125744	     -4.06273659	      1.07897774	      0.00000000	     41.01412225	    -28.27754191	     27.24697196	     52.49369725	      0.91618785	     26.44170451	     -9.42828519	      0.00000000	     -0.49531812	     -1.71853761	     -1.14579378	     -0.91985527	     -2.28565502	     -1.21740589	     -0.81375813	     -4.17845233	     -1.21740589	     -0.56609908	     -4.17845233	     -1.00256956	     -0.45995240	     -3.50444189	     -0.93095745	     -0.28302477	     -2.66201475	     -0.85934534	     -3.53800778	    -19.44044110	     -6.37256128	      0.00000000	      0.00000000	      0.00000000	      0.00000000	      0.00000000	     21.67360301	    -40.66043674	    -38.23802531	    122.00634872	     76.95738111	      0.00000000	      4.98025409	     -8.76629486	    -54.33780906	    -22.13544668	     46.08275647	     67.23164670	      0.00000000	      4.98025409
      0.91666667	    -31.97849175	     11.48179620	    -85.00657285	     -0.11555972	      0.98618659	     -1.01782076	     47.01112893	    -15.13904999	    -12.85057155	     39.13130640	      0.68297014	     -2.61216741	      1.46684191	      0.00000000	     40.16299411	    -27.94346336	     26.44182950	     51.17140057	      0.89310942	     26.39376173	     -9.30352425	      0.00000000	     -0.49796697	     -1.78072542	     -1.09684046	     -0.92477447	     -2.36836481	     -1.16539299	     -0.81810994	     -4.32965579	     -1.16539299	     -0.56912645	     -4.32965579	     -0.95973541	     -0.46241213	     -3.63125528	     -0.89118288	     -0.28453833	     -2.75834368	     -0.82263035	     -3.55692829	    -20.14392211	     -6.10029760	      0.00000000	      0.00000000	      0.00000000	      0.00000000	      0.00000000	     22.37320387	    -40.43022620	    -37.55156487	    123.75521560	     77.05841497	      0.00000000	      4.98059194	     -8.45599394	    -54.68523208	    -21.97882658	     46.10450637	     67.34041779	      0.00000000	      4.98059194
      0.93333333	    -30.94604543	     11.86238571	    -85.05334492	     -0.11487331	      0.98836724	     -1.01008814	     47.83790605	    -14.32867614	    -13.32995156	     39.77685354	      0.69423706	     -0.51879118	      3.12188698	      0.00000000	     38.78782984	    -27.25311934	     25.44076252	     49.71292693	      0.86765426	     26.21180605	     -9.59028780	      0.00000000	     -0.49512583	     -1.87331679	     -1.06669014	     -0.91949818	     -2.49151133	     -1.13335828	     -0.81344223	     -4.55478244	     -1.13335828	     -0.56587931	     -4.55478244	     -0.93335388	     -0.45977385	     -3.82006759	     -0.86668574	     -0.28291490	     -2.90176770	     -0.80001761	     -3.53663431	    -21.19133416	     -5.93261057	      0.00000000	      0.00000000	      0.00000000	      0.00000000	      0.00000000	     22.55791689	    -39.89662170	    -37.03339451	    125.22131250	     77.22658552	      0.00000000	      4.98129309	     -8.49679723	    -55.19477641	    -21.57433630	     45.96725961	     67.56062413	      0.00000000	      4.98129309
      0.95000000	    -30.07019632	     12.12273715	    -85.12929741	     -0.11406154	      0.99100689	     -1.00104441	     48.29484450	    -12.99539860	    -14.00298859	     40.11912823	      0.70021088	      1.57844284	      4.80680966	      0.00000000	     37.16788371	    -26.69681887	     24.47131343	     48.16871262	      0.84070263	     25.95464196	     -9.91899635	      0.00000000	     -0.48232117	     -1.94334316	     -1.01085443	     -0.89571864	     -2.58464640	     -1.07403283	     -0.79240545	     -4.72504456	     -1.07403283	     -0.55124486	     -4.72504456	     -0.88449762	     -0.44788344	     -3.96286537	     -0.82131922	     -0.27559832	     -3.01023856	     -0.75814082	     -3.44517187	    -21.98348651	     -5.62206907	      0.00000000	      0.00000000	      0.00000000	      0.00000000	      0.00000000	     22.14207617	    -39.33862667	    -36.66718213	    126.78443357	     77.32392885	      0.00000000	      4.98177665	     -8.69355453	    -55.40369432	    -21.34752514	     46.04300753	     67.66287216	      0.00000000	      4.98177665
      0.96666667	    -28.81305445	     12.40669745	    -85.27590350	     -0.11313642	      0.99384738	     -0.99141210	     48.78773084	    -11.69746638	    -14.51185707	     40.41303251	      0.70534048	      3.84770647	      7.24469252	      0.00000000	     35.23456849	    -25.62332236	     23.39748008	     46.47204843	      0.81109026	     25.36323395	    -10.90237443	      0.00000000	     -0.46371914	     -2.06099954	     -0.94317093	     -0.86117281	     -2.74112939	     -1.00211911	     -0.76184417	     -5.01111428	     -1.00211911	     -0.52998460	     -5.01111428	     -0.82527456	     -0.43060959	     -4.20279026	     -0.76632638	     -0.26496912	     -3.19248828	     -0.70737819	     -3.31229944	    -23.31443898	     -5.24563374	      0.00000000	      0.00000000	      0.00000000	      0.00000000	      0.00000000	     20.74798637	    -38.38765150	    -36.97782931	    128.02197714	     77.56041176	      0.00000000	      4.98269186	     -9.05565032	    -55.81273320	    -21.01913674	     46.51490579	     67.85802989	      0.00000000	      4.98269186
      0.98333333	    -27.59418554	     12.66881449	    -85.58160455	     -0.11257162	      0.99699588	     -0.98143722	     49.15175957	     -9.91029859	    -14.99675153	     40.31198844	      0.70357693	      5.57461720	      9.41598304	      0.00000000	     33.18022517	    -24.61032945	     22.25887071	     44.72322887	      0.78056760	     24.58838601	    -12.13835314	      0.00000000	     -0.45125830	     -2.17700082	     -0.80758556	     -0.83803179	     -2.89541110	     -0.85805966	     -0.74137226	     -5.29315980	     -0.85805966	     -0.51574311	     -5.29315980	     -0.70663737	     -0.41903846	     -4.43934008	     -0.65616327	     -0.25784899	     -3.37217428	     -0.60568917	     -3.22329293	    -24.62666872	     -4.49154863	      0.00000000	      0.00000000	      0.00000000	      0.00000000	      0.00000000	     18.35919467	    -37.29933655	    -37.93869622	    129.31495149	     78.02392796	      0.00000000	      4.98429713	     -9.26232212	    -56.16932211	    -20.50613096	     47.29108620	     68.11865951	      0.00000000	      4.98429713
      1.00000000	    -26.23838858	     12.81383175	    -85.94692440	     -0.11218723	      1.00018635	     -0.97202996	     49.34989174	     -7.97558805	    -15.45933269	     39.85717766	      0.69563898	      7.01917117	     11.58103155	      0.00000000	     31.07147586	    -23.50031739	     20.91734959	     43.01680073	      0.75078481	     23.91297865	    -12.98048782	      0.00000000	     -0.44418143	     -2.29033034	     -0.70387327	     -0.82488934	     -3.04613936	     -0.74786535	     -0.72974568	     -5.56870920	     -0.74786535	     -0.50765496	     -5.56870920	     -0.61588911	     -0.41246688	     -4.67044163	     -0.57189703	     -0.25380527	     -3.54772170	     -0.52790495	     -3.17274356	    -25.90867490	     -3.91473197	      0.00000000	      0.00000000	      0.00000000	      0.00000000	      0.00000000	     16.40581614	    -36.01260875	    -37.77974827	    129.88165811	     78.18619277	      0.00000000	      4.98512596	     -9.24897344	    -56.38405130	    -20.14312141	     47.68153214	     68.17677403	      0.00000000	      4.98512596
